<?xml version="1.0" standalone="no"?>
<!DOCTYPE svg PUBLIC "-//W3C//DTD SVG 20010904//EN"
 "http://www.w3.org/TR/2001/REC-SVG-20010904/DTD/svg10.dtd">
<svg version="1.0" xmlns="http://www.w3.org/2000/svg"
 width="700.000000pt" height="700.000000pt" viewBox="0 0 700.000000 700.000000"
 preserveAspectRatio="xMidYMid meet">
<metadata>
Created by potrace 1.11, written by Peter Selinger 2001-2013
</metadata>
<g transform="translate(0.000000,700.000000) scale(0.100000,-0.100000)"
fill="#000000" stroke="none">
<path d="M2145 6713 c-119 -11 -246 -56 -348 -122 -247 -162 -369 -448 -323
-758 9 -60 12 -58 -109 -68 -44 -3 -93 -8 -110 -10 -16 -2 -57 -7 -90 -10
-110 -12 -126 -14 -143 -19 -9 -3 -39 -8 -67 -12 -27 -3 -54 -8 -58 -11 -5 -3
-23 -7 -40 -10 -57 -8 -146 -55 -183 -95 -57 -63 -93 -166 -120 -338 -3 -19
-9 -60 -14 -90 -5 -30 -12 -88 -15 -128 -4 -41 -8 -81 -10 -90 -4 -24 -18
-228 -30 -442 -24 -420 -24 -1916 0 -2460 16 -375 16 -388 30 -562 3 -31 7
-94 10 -140 5 -78 8 -107 20 -215 3 -24 7 -64 10 -90 9 -78 15 -125 25 -183
48 -271 93 -355 225 -416 123 -56 364 -102 620 -119 50 -4 110 -8 135 -10 58
-5 234 -16 330 -20 473 -23 1833 -23 2340 0 47 2 164 7 260 10 96 3 209 8 250
10 41 2 134 7 205 10 72 3 155 8 185 10 30 2 96 7 145 10 50 3 113 8 140 10
95 8 190 17 225 20 19 2 64 6 100 10 36 3 76 8 90 10 14 2 45 6 70 10 259 37
390 88 438 173 37 66 67 204 87 402 4 36 8 76 11 90 4 28 12 113 19 205 2 33
6 83 9 110 3 28 8 100 11 160 3 61 8 135 10 165 2 30 7 118 10 195 3 77 8 176
10 220 5 86 15 346 20 485 24 687 24 1799 1 2135 -2 28 -7 97 -10 155 -4 58
-9 119 -11 135 -2 17 -6 62 -10 100 -4 39 -9 79 -11 90 -2 10 -6 37 -9 60 -3
22 -8 47 -10 55 -2 8 -7 29 -10 46 -9 57 -53 175 -80 215 -27 42 -90 92 -141
114 -67 28 -263 68 -394 80 -30 3 -66 7 -80 10 -14 2 -67 7 -118 10 -51 4
-111 8 -133 10 -23 2 -111 6 -197 10 -194 8 -231 11 -236 16 -2 2 -7 44 -10
94 -25 332 -156 582 -363 693 -221 117 -518 96 -742 -52 -211 -141 -327 -374
-323 -648 1 -55 -2 -78 -11 -79 -26 -2 -223 -6 -471 -10 l-259 -4 -3 65 c-3
79 -11 143 -29 240 -25 132 -107 290 -200 385 -127 129 -323 196 -520 178z
m162 -474 c51 -25 86 -87 107 -194 17 -82 27 -203 18 -209 -8 -5 -281 -18
-410 -20 l-94 -1 -5 60 c-2 33 -6 76 -7 95 -6 94 45 194 127 246 80 52 184 61
264 23z m2161 10 c71 -23 121 -137 138 -317 l6 -73 -255 2 -255 2 -6 45 c-15
109 6 189 67 258 77 88 192 119 305 83z m82 -843 c0 -2 -14 -37 -31 -77 -53
-125 -57 -142 -54 -195 8 -123 111 -215 236 -208 92 4 167 65 216 174 43 95
52 118 77 211 l23 84 94 -1 c94 -1 348 -12 424 -19 22 -2 74 -6 115 -9 151
-12 317 -35 341 -47 15 -7 34 -87 43 -179 2 -19 7 -64 10 -100 9 -81 14 -165
21 -350 4 -80 8 -166 10 -193 1 -26 -2 -50 -7 -53 -5 -4 -215 -8 -466 -10
-252 -2 -707 -6 -1012 -8 -1301 -12 -2143 -18 -2868 -20 -838 -2 -795 -5 -786
49 2 11 6 72 9 135 10 209 29 454 40 520 1 8 6 35 10 60 17 101 12 96 80 104
28 3 61 8 75 10 53 10 98 15 175 22 44 3 88 8 99 10 10 2 64 6 120 9 55 4 121
8 146 10 25 2 95 7 155 10 61 4 133 8 161 10 172 11 354 16 354 10 0 -4 -16
-43 -35 -86 -58 -127 -48 -212 32 -293 93 -93 256 -79 338 28 33 44 89 176
121 285 13 47 27 87 29 90 6 6 180 10 765 17 261 4 476 7 477 8 4 3 463 -5
463 -8z m1534 -1771 c-1 -321 -10 -888 -19 -1130 -12 -364 -16 -467 -20 -525
-2 -36 -7 -126 -10 -200 -3 -74 -8 -160 -10 -190 -2 -30 -7 -100 -10 -155 -3
-55 -8 -116 -10 -135 -2 -19 -7 -69 -10 -110 -7 -90 -11 -123 -24 -215 -6 -38
-11 -75 -11 -82 0 -7 -15 -15 -32 -18 -18 -3 -46 -7 -63 -10 -28 -5 -168 -22
-245 -30 -19 -2 -71 -6 -115 -10 -44 -3 -100 -8 -125 -10 -25 -3 -85 -7 -135
-10 -49 -3 -124 -8 -165 -10 -137 -9 -442 -24 -600 -30 -955 -36 -2057 -36
-2740 0 -113 6 -160 10 -270 20 -30 3 -82 7 -115 10 -110 10 -149 16 -229 30
-43 8 -80 15 -81 15 -10 0 -38 183 -50 325 -4 39 -8 82 -11 96 -2 15 -6 64 -9
110 -3 46 -7 118 -10 160 -8 103 -21 376 -30 644 -14 403 -24 1760 -13 1770 2
1 642 6 1423 9 1450 7 2818 16 2821 19 2 1 209 2 461 2 l458 0 -1 -340z"/>
<path d="M2527 3683 c-2 -2 -24 -6 -48 -9 -58 -8 -184 -55 -235 -86 -81 -52
-170 -163 -221 -276 -48 -109 -55 -199 -28 -352 34 -190 101 -362 198 -506 45
-66 65 -91 153 -187 61 -66 122 -141 225 -277 198 -260 682 -862 740 -918 50
-49 85 -65 128 -57 31 5 75 46 296 269 462 467 542 553 718 774 223 280 328
473 372 691 24 115 -28 306 -121 441 -103 150 -278 283 -439 334 -138 44 -289
42 -418 -5 -68 -25 -184 -92 -232 -135 -22 -20 -53 -47 -69 -61 -49 -43 -98
-73 -120 -73 -33 1 -57 18 -174 128 -60 56 -134 120 -164 141 -148 107 -299
161 -461 165 -53 1 -99 1 -100 -1z"/>
</g>
</svg>
