<!-- Generator: Adobe Illustrator 19.2.1, SVG Export Plug-In  -->
<svg version="1.1"
	 xmlns="http://www.w3.org/2000/svg" xmlns:xlink="http://www.w3.org/1999/xlink" xmlns:a="http://ns.adobe.com/AdobeSVGViewerExtensions/3.0/"
	 x="0px" y="0px" width="20.6px" height="55.2px" viewBox="0 0 20.6 55.2" enable-background="new 0 0 20.6 55.2"
	 xml:space="preserve">
<defs>
</defs>
<g>
	<path fill="#FFFFFF" d="M2.4,54.2c-0.3,0.3-0.5,0.7-0.9,0.8c-0.4,0.2-0.9,0.3-1.2,0.1c-0.5-0.3-0.4-0.7,0-1.2
		c1.7-2.2,3.5-4.3,5-6.6C13.3,35,15.8,21.7,12.6,7.4c-0.1-0.5-0.7-1.3,0.2-1.6c1-0.3,1.2,0.6,1.4,1.3c2.8,10.5,1.7,20.7-2.1,30.8
		c-2.1,5.5-4.9,10.5-8.6,15.1C3.2,53.4,2.8,53.8,2.4,54.2z"/>
	<path fill="#FFFFFF" d="M10.9,2.9c-0.1,2.1-0.2,4.1-0.4,6c-0.1,0.8-0.3,1.6-0.6,2.3c-0.1,0.3-0.7,0.6-1,0.6c-0.3-0.1-0.5-0.6-0.7-1
		c-0.1-0.1,0-0.4,0-0.6c0.2-2.9,0.4-5.7,0.6-8.6c0-0.5,0.3-1,0.5-1.6c0.5,0.2,1.1,0.4,1.6,0.7c2.9,2.2,5.8,4.4,8.8,6.6
		c0.5,0.3,1.1,0.6,0.7,1.3c-0.2,0.3-1,0.4-1.4,0.2c-1.7-1-3.3-2-4.9-3.1C13.1,4.8,12,3.8,10.9,2.9z"/>
</g>
</svg>
