<!-- Generator: Adobe Illustrator 19.2.1, SVG Export Plug-In  -->
<svg version="1.1"
	 xmlns="http://www.w3.org/2000/svg" xmlns:xlink="http://www.w3.org/1999/xlink" xmlns:a="http://ns.adobe.com/AdobeSVGViewerExtensions/3.0/"
	 x="0px" y="0px" width="12.8px" height="55.9px" viewBox="0 0 12.8 55.9" enable-background="new 0 0 12.8 55.9"
	 xml:space="preserve">
<defs>
</defs>
<g>
	<path fill="#FFFFFF" d="M8.8,1.3C9,1,9.1,0.6,9.4,0.4c0.3-0.2,0.9-0.5,1.2-0.4c0.6,0.2,0.5,0.7,0.2,1.2C9.7,3.7,8.3,6.1,7.3,8.7
		C1.9,22.3,2.1,35.8,8,49.2c0.2,0.5,1,1.2,0.1,1.6c-1,0.5-1.3-0.3-1.6-1c-4.9-9.7-5.8-20-4-30.6C3.4,13.5,5.2,8,7.9,2.8
		C8.2,2.3,8.5,1.8,8.8,1.3z"/>
	<path fill="#FFFFFF" d="M10.6,53.3c-0.3-2.1-0.6-4-0.8-5.9c-0.1-0.8,0-1.6,0.1-2.3c0.1-0.3,0.6-0.8,0.9-0.7c0.3,0,0.6,0.5,0.8,0.8
		c0.1,0.1,0,0.4,0.1,0.5c0.4,2.9,0.8,5.7,1.1,8.6c0.1,0.5-0.1,1.1-0.2,1.6c-0.6-0.1-1.2-0.2-1.7-0.4c-3.3-1.6-6.6-3.2-9.9-4.8
		c-0.5-0.2-1.2-0.4-0.9-1.1c0.1-0.3,0.9-0.5,1.3-0.4c1.8,0.6,3.6,1.3,5.4,2.1C8.1,51.9,9.3,52.6,10.6,53.3z"/>
</g>
</svg>
