<!-- Generator: Adobe Illustrator 19.2.1, SVG Export Plug-In  -->
<svg version="1.1"
	 xmlns="http://www.w3.org/2000/svg" xmlns:xlink="http://www.w3.org/1999/xlink" xmlns:a="http://ns.adobe.com/AdobeSVGViewerExtensions/3.0/"
	 x="0px" y="0px" width="49.1px" height="52px" viewBox="0 0 49.1 52" enable-background="new 0 0 49.1 52" xml:space="preserve">
<defs>
</defs>
<g>
	<g>
		<path fill="#fff" d="M1.7,49.8C2.3,50.7,3.2,52,20.4,52c5.7,0,12.1-0.2,17-0.5c9.2-0.6,9.5-1.2,10.1-2
			c1.1-1.8,1.5-17.1,1.6-20.1c0.4-18.9-1-20.2-1.7-20.9C46.8,8.1,46,7.3,37.2,7c0-1.2-0.2-2.3-0.5-3.3c-0.7-2-1.9-2.9-2.8-3.2
			c-2.1-0.8-4.4-0.4-6.1,1c-1.6,1.3-2.3,3.4-2.1,5.5c-2,0-4,0.1-6,0.1c0-1.2-0.2-2.3-0.5-3.4c-0.7-2-1.9-2.9-2.8-3.2
			c-2.1-0.8-4.4-0.4-6.1,1c-1.7,1.5-2.5,3.7-2,6.1c0,0,0,0.1,0,0.1c-5.7,0.5-6.2,1-6.6,1.5C1.2,9.7-0.1,11.3,0,29.5
			C0.1,36.2,0.4,47.8,1.7,49.8z M44.4,47.2c-2.8,0.6-13,1.2-24,1.2c-10,0-14.4-0.5-15.7-0.9c-0.8-3-1.1-15.5-1-25.1c0.8,0,2,0,3.5,0
			c5.4,0,15.8-0.1,35-0.2c1.4,0,2.5,0,3.2,0C45.5,31.5,45,43.7,44.4,47.2z M29.4,6.7c-0.3-1.4,0.3-2.2,0.7-2.5
			c0.7-0.6,1.6-0.7,2.4-0.4c0.4,0.2,0.6,0.7,0.7,1c0.2,0.6,0.3,1.3,0.3,2c-1.3,0-2.6,0-4.1,0c0,0,0,0,0,0
			C29.4,6.9,29.4,6.8,29.4,6.7z M11.8,6.7c-0.3-1.4,0.3-2.2,0.7-2.5c0.7-0.6,1.6-0.7,2.4-0.4c0.4,0.2,0.6,0.7,0.7,1
			C15.9,5.5,16,6.3,16,7.2c-1.4,0.1-2.8,0.1-4,0.2c0,0-0.1,0-0.1,0C11.9,7.2,11.9,7,11.8,6.7z M15.4,10.9c-0.1,0.3-0.2,0.7-0.4,0.9
			c-0.5,0.9-0.2,2,0.7,2.5c0.3,0.2,0.6,0.2,0.9,0.2c0.6,0,1.3-0.3,1.6-0.9c0.4-0.8,0.8-1.8,1.1-2.9c3.2-0.1,6.6-0.1,10.1-0.1
			c1.3,0,2.5,0,3.6,0c-0.1,0.4-0.3,0.9-0.5,1.2c-0.5,0.9-0.2,2,0.7,2.5c0.3,0.2,0.6,0.2,0.9,0.2c0.6,0,1.3-0.3,1.6-0.9
			c0.4-0.8,0.8-1.8,1.1-2.9c4.7,0.1,7,0.4,8,0.6c0.3,1.1,0.5,3.7,0.6,7.1c-0.7,0-1.8,0-3.2,0c-8.4,0.1-31.9,0.3-38.3,0.2
			c0.1-3.2,0.3-5.8,0.6-6.9C6,11.4,10,11.1,15.4,10.9z"/>
		<path fill="#FFFFFF" d="M35.3,31.5c-0.2-2.2-1.3-3.6-2.9-4.8c-2.3-1.6-5.1-1.5-7.1,0.4c-1.4,1.3-1.5,1.3-2.8-0.1
			c-2.3-2.5-5.2-3.1-7.9-1.9c-1.3,0.6-2.6,2.7-2.4,4.2c0.2,2.4,1.1,4.6,2.8,6.5c0.8,0.8,1.5,1.8,2.2,2.7c1.7,2.2,3.5,4.4,5.2,6.6
			c1.1,1.4,1.5,1.3,2.7,0.1c2.1-2.3,4.4-4.4,6.4-6.7C33.3,36.3,35,34.2,35.3,31.5z"/>
	</g>
</g>
</svg>
