<svg xmlns="http://www.w3.org/2000/svg" width="60.9" height="38.5" viewBox="0 0 60.9 38.5">
  <g fill="#FFF">
    <path d="M50.3 16.9c-.5 7.8-4.2 14.2-8.1 13.9-2.7-.2-4.9-3.5-5.9-8.1.9-.2 1.8-.7 2.4-1.4 2-2.1 1.9-5.7 1.9-6.1 0-4.3-1.9-6.2-3.1-7 .4-.9.8-1.8 1.3-2.6 1.5-2.4 3.2-3.7 5-3.7h.2c1.8.1 3.5 1.6 4.7 4.3 1.2 3 1.8 6.7 1.6 10.7zM16.4 28.3c.1-1.1.3-2.2.6-3.3l2.9.9c-.5.9-1.7 2.6-3.5 2.4zm-1.9 8.1c-.1.1-.3.1-.5.1l-2.5-1.2h-.1c-1.6-.6-1.6-.8-1.8-1.6-1.6-5.7.7-10 1.1-10.6l4.4 1.4c-.4 1.5-.6 3.1-.7 4.5v.1c-.2 2.7.1 5.2.4 6.7-.1.3-.2.5-.3.6zm-10.8-15c-.6 0-1.3-.4-1.5-1.3V20c-.7-3.1.5-6.2.7-6.6.5-.9 1.1-1.4 1.7-1.3.6 0 1.2.6 1.2 1.3.4 3.6 0 5.7-.4 6.9-.3.9-1.1 1.1-1.7 1.1zm30.1-5.6c-.3 5.4.8 10.2 2.8 13.4L7.6 20c.4-1.7.5-3.7.3-6L37.6 4c-.2.2-.3.5-.5.7-1.9 2.9-3 6.8-3.3 11.1zm3.3-5.1c.9 1.1 1.4 2.7 1.4 4.7v.1c0 .8-.1 3.3-1.3 4.6-.4.4-.8.6-1.3.8-.2-1.5-.2-3.1-.1-4.8.1-2 .5-3.9 1-5.6.1-.1.2 0 .3.2zM52.3 17c.3-4.3-.4-8.4-1.8-11.5C49 2.1 46.7.2 44.1 0h-.8c-.2-.1-.4-.1-.6 0L7.4 11.9c-.5-1.1-1.6-1.8-2.8-1.9-1 0-2.4.4-3.5 2.4v.1c-.1.2-1.6 3.9-.8 7.9v.1c.4 1.6 1.7 2.8 3.4 2.9h.2c1.2 0 2.3-.6 3-1.6l1.9.6c-.9 1.6-2.7 6-1.2 11.7.4 1.6 1 2.1 3 2.9l2.5 1.2c.4.2.7.2 1.1.2.6 0 1.2-.2 1.6-.6.7-.6 1-1.5.8-2.4-.2-1.2-.4-3-.4-5.1h.4c2.6 0 4.4-2.2 5.2-3.8l18.7 5.9h.3c.4.1.8.2 1.2.2h.4c5 .3 9.3-6.6 9.9-15.6z"/>
    <path d="M52.6 2.7c-.5.3-.7.9-.4 1.4.1.1 6 12.2 0 24.3-.2.5 0 1.1.4 1.4.1.1.3.1.4.1.4 0 .7-.2.9-.6 6.4-13.1.3-25.6 0-26.2-.2-.5-.8-.7-1.3-.4"/>
    <path d="M60 8.5c-.2-.5-.7-.8-1.2-.7-.5.2-.8.7-.7 1.3 0 .1 1.9 6.6 0 12.5-.2.5.1 1.1.6 1.3h.3c.4 0 .8-.3 1-.7 2-6.5.1-13.4 0-13.7"/>
  </g>
</svg>