<!-- Generator: Adobe Illustrator 19.2.1, SVG Export Plug-In  -->
<svg version="1.1"
	 xmlns="http://www.w3.org/2000/svg" xmlns:xlink="http://www.w3.org/1999/xlink" xmlns:a="http://ns.adobe.com/AdobeSVGViewerExtensions/3.0/"
	 x="0px" y="0px" width="32.5px" height="15.7px" viewBox="0 0 32.5 15.7" enable-background="new 0 0 32.5 15.7"
	 xml:space="preserve">
<defs>
</defs>
<g>
	<path fill="#FFFFFF" d="M31.5,2.2L9,2.3H1C0.7,2.3,0.5,2.2,0.3,2C0.1,1.8,0,1.5,0,1.3c0-0.7,1.3-1,3.8-1L31.1,0
		c1,0,1.4,0.5,1.4,1.4c0,0.2-0.1,0.4-0.3,0.6C32,2.1,31.8,2.2,31.5,2.2z"/>
	<path fill="#FFFFFF" d="M31.5,8.9L9,9H1C0.7,9,0.5,8.9,0.3,8.7C0.1,8.5,0,8.2,0,7.9c0-0.7,1.3-1,3.8-1l27.3-0.3
		c1,0,1.4,0.5,1.4,1.4c0,0.2-0.1,0.4-0.3,0.6C32,8.8,31.8,8.9,31.5,8.9z"/>
	<path fill="#FFFFFF" d="M31.5,15.5L9,15.7H1c-0.3,0-0.5-0.1-0.7-0.3C0.1,15.1,0,14.9,0,14.6c0-0.7,1.3-1,3.8-1l27.3-0.3
		c1,0,1.4,0.5,1.4,1.4c0,0.2-0.1,0.4-0.3,0.6C32,15.4,31.8,15.5,31.5,15.5z"/>
</g>
</svg>
