<!-- Generator: Adobe Illustrator 19.2.1, SVG Export Plug-In  -->
<svg version="1.1"
	 xmlns="http://www.w3.org/2000/svg" xmlns:xlink="http://www.w3.org/1999/xlink" xmlns:a="http://ns.adobe.com/AdobeSVGViewerExtensions/3.0/"
	 x="0px" y="0px" width="22.1px" height="21.8px" viewBox="0 0 22.1 21.8" enable-background="new 0 0 22.1 21.8"
	 xml:space="preserve">
<defs>
</defs>
<path fill="#FFFFFF" d="M9.4,17.3c1.6-0.1,3.1-0.7,4.4-1.6c0.2-0.2,0.6-0.2,0.8,0.1l5.9,5.9c0.2,0.2,0.6,0.2,0.8,0l0.8-0.8
	c0.2-0.2,0.2-0.6,0-0.8l-6-5.9c-0.2-0.2-0.2-0.5-0.1-0.8c1-1.5,1.5-3.4,1.3-5.4C16.9,3.5,13.1,0,8.7,0c-5,0-9,4.2-8.6,9.3
	c0.3,4.1,3.6,7.5,7.7,8 M12.7,3.8C14.1,5,15,6.7,15,8.7c0,3.5-2.8,6.3-6.3,6.3s-6.3-2.8-6.3-6.3s2.8-6.3,6.3-6.3
	c0.6,0,1.3,0.1,1.9,0.3"/>
</svg>
